<mxfile host="app.diagrams.net" modified="2020-09-05T06:54:22.702Z" agent="5.0 (Windows NT 10.0; Win64; x64) AppleWebKit/537.36 (KHTML, like Gecko) Chrome/85.0.4183.83 Safari/537.36" etag="_rCjaQyln00fH1wRT6CX" version="13.6.6" type="github">
  <diagram name="Page-1" id="03018318-947c-dd8e-b7a3-06fadd420f32">
    <mxGraphModel dx="1422" dy="796" grid="1" gridSize="10" guides="1" tooltips="1" connect="1" arrows="1" fold="1" page="1" pageScale="1" pageWidth="1100" pageHeight="850" background="#ffffff" math="0" shadow="0">
      <root>
        <mxCell id="0" />
        <mxCell id="1" parent="0" />
        <mxCell id="677b7b8949515195-1" value="" style="whiteSpace=wrap;html=1;rounded=0;shadow=0;labelBackgroundColor=none;strokeColor=#000000;strokeWidth=1;fillColor=none;fontFamily=Verdana;fontSize=12;fontColor=#000000;align=center;comic=1;" parent="1" vertex="1">
          <mxGeometry x="20" y="70" width="1060" height="1270" as="geometry" />
        </mxCell>
        <mxCell id="677b7b8949515195-8" value="" style="whiteSpace=wrap;html=1;rounded=0;shadow=0;labelBackgroundColor=none;strokeWidth=1;fontFamily=Verdana;fontSize=12;align=center;comic=1;" parent="1" vertex="1">
          <mxGeometry x="20" y="490" width="200" height="360" as="geometry" />
        </mxCell>
        <mxCell id="677b7b8949515195-10" value="" style="whiteSpace=wrap;html=1;rounded=0;shadow=0;labelBackgroundColor=none;strokeWidth=1;fillColor=none;fontFamily=Verdana;fontSize=12;align=center;comic=1;" parent="1" vertex="1">
          <mxGeometry x="20" y="140" width="1060" height="30" as="geometry" />
        </mxCell>
        <mxCell id="677b7b8949515195-11" value="Section 1" style="text;html=1;points=[];align=left;verticalAlign=top;spacingTop=-4;fontSize=14;fontFamily=Verdana" parent="1" vertex="1">
          <mxGeometry x="330" y="150" width="60" height="20" as="geometry" />
        </mxCell>
        <mxCell id="677b7b8949515195-12" value="Section 2" style="text;html=1;points=[];align=left;verticalAlign=top;spacingTop=-4;fontSize=14;fontFamily=Verdana" parent="1" vertex="1">
          <mxGeometry x="477" y="150" width="60" height="20" as="geometry" />
        </mxCell>
        <mxCell id="677b7b8949515195-13" value="Section 3" style="text;html=1;points=[];align=left;verticalAlign=top;spacingTop=-4;fontSize=14;fontFamily=Verdana" parent="1" vertex="1">
          <mxGeometry x="623" y="150" width="60" height="20" as="geometry" />
        </mxCell>
        <mxCell id="677b7b8949515195-14" value="Section 4" style="text;html=1;points=[];align=left;verticalAlign=top;spacingTop=-4;fontSize=14;fontFamily=Verdana" parent="1" vertex="1">
          <mxGeometry x="770" y="150" width="60" height="20" as="geometry" />
        </mxCell>
        <mxCell id="677b7b8949515195-15" value="&lt;div style=&quot;text-align: justify&quot;&gt;&lt;b&gt;&lt;font style=&quot;font-size: 14px&quot;&gt;Welcome to RetroRecords Newtown&lt;/font&gt;&lt;/b&gt;&lt;br&gt;RetroRecords Newtown is a one-stop-shop for your retro music purchases.&lt;br&gt;We source retro albums, rare LPs and used records for you, the music consumer and&lt;br&gt;audiophile.&lt;br&gt;&lt;font style=&quot;font-size: 14px&quot;&gt;&lt;b&gt;Vinyl records sound better&lt;/b&gt;&lt;/font&gt;&lt;br&gt;It&#39;s pure nostalgia. The audio on vinyl records cannot be compressed as much as&lt;br&gt;modern digital audio. It means that the audio from vinyl records is more precise and&lt;br&gt;more natural.&amp;nbsp;&lt;br&gt;&lt;/div&gt;" style="whiteSpace=wrap;html=1;rounded=0;shadow=0;labelBackgroundColor=none;strokeWidth=1;fillColor=none;fontFamily=Verdana;fontSize=12;align=center;verticalAlign=top;spacing=10;comic=1;" parent="1" vertex="1">
          <mxGeometry x="20" y="360" width="1060" height="130" as="geometry" />
        </mxCell>
        <mxCell id="677b7b8949515195-16" value="" style="verticalLabelPosition=bottom;shadow=0;dashed=0;align=center;html=1;verticalAlign=top;strokeWidth=1;shape=mxgraph.mockup.graphics.simpleIcon;strokeColor=#999999;rounded=0;labelBackgroundColor=none;fontFamily=Verdana;fontSize=14;fontColor=#000000;comic=1;sketch=0;" parent="1" vertex="1">
          <mxGeometry x="20" y="170" width="1060" height="190" as="geometry" />
        </mxCell>
        <mxCell id="677b7b8949515195-33" value="&lt;font style=&quot;font-size: 20px&quot;&gt;Genres&lt;/font&gt;" style="text;html=1;points=[];align=left;verticalAlign=top;spacingTop=-4;fontSize=14;fontFamily=Verdana;strokeWidth=20;" parent="1" vertex="1">
          <mxGeometry x="70" y="510" width="60" height="20" as="geometry" />
        </mxCell>
        <mxCell id="zrfYQ-joEEeIWXjZLdmF-3" value="&lt;font style=&quot;font-size: 19px&quot;&gt;Free shippng over $50&lt;/font&gt;" style="text;html=1;strokeColor=none;fillColor=none;align=center;verticalAlign=middle;whiteSpace=wrap;rounded=0;" vertex="1" parent="1">
          <mxGeometry x="600" y="95" width="220" height="20" as="geometry" />
        </mxCell>
        <mxCell id="zrfYQ-joEEeIWXjZLdmF-4" value="" style="ellipse;whiteSpace=wrap;html=1;fillColor=#ffffff;" vertex="1" parent="1">
          <mxGeometry x="490" y="75" width="100" height="65" as="geometry" />
        </mxCell>
        <mxCell id="zrfYQ-joEEeIWXjZLdmF-5" value="&lt;font style=&quot;font-size: 18px&quot;&gt;Logo&lt;/font&gt;" style="text;html=1;strokeColor=none;fillColor=none;align=center;verticalAlign=middle;whiteSpace=wrap;rounded=0;" vertex="1" parent="1">
          <mxGeometry x="520" y="95" width="40" height="20" as="geometry" />
        </mxCell>
        <mxCell id="zrfYQ-joEEeIWXjZLdmF-6" value="" style="rounded=0;whiteSpace=wrap;html=1;fillColor=#ffffff;" vertex="1" parent="1">
          <mxGeometry x="20" y="210" width="1060" height="90" as="geometry" />
        </mxCell>
        <mxCell id="zrfYQ-joEEeIWXjZLdmF-7" value="&lt;font style=&quot;font-size: 18px&quot;&gt;Welcome to Retro Records&lt;/font&gt;" style="text;html=1;strokeColor=none;fillColor=none;align=center;verticalAlign=middle;whiteSpace=wrap;rounded=0;" vertex="1" parent="1">
          <mxGeometry x="425" y="240" width="250" height="20" as="geometry" />
        </mxCell>
        <mxCell id="zrfYQ-joEEeIWXjZLdmF-8" value="&lt;font style=&quot;font-size: 15px&quot;&gt;Rock&lt;/font&gt;" style="text;html=1;strokeColor=none;fillColor=none;align=center;verticalAlign=middle;whiteSpace=wrap;rounded=0;shadow=0;sketch=0;" vertex="1" parent="1">
          <mxGeometry x="90" y="550" width="40" height="20" as="geometry" />
        </mxCell>
        <mxCell id="zrfYQ-joEEeIWXjZLdmF-9" value="&lt;font style=&quot;font-size: 15px&quot;&gt;Pop&lt;/font&gt;" style="text;html=1;strokeColor=none;fillColor=none;align=center;verticalAlign=middle;whiteSpace=wrap;rounded=0;shadow=0;sketch=0;" vertex="1" parent="1">
          <mxGeometry x="90" y="580" width="40" height="20" as="geometry" />
        </mxCell>
        <mxCell id="zrfYQ-joEEeIWXjZLdmF-10" value="&lt;font style=&quot;font-size: 15px&quot;&gt;Jazz&lt;/font&gt;" style="text;html=1;strokeColor=none;fillColor=none;align=center;verticalAlign=middle;whiteSpace=wrap;rounded=0;shadow=0;sketch=0;" vertex="1" parent="1">
          <mxGeometry x="90" y="610" width="40" height="20" as="geometry" />
        </mxCell>
        <mxCell id="zrfYQ-joEEeIWXjZLdmF-11" value="&lt;span style=&quot;font-size: 15px&quot;&gt;Reggae&lt;/span&gt;" style="text;html=1;strokeColor=none;fillColor=none;align=center;verticalAlign=middle;whiteSpace=wrap;rounded=0;shadow=0;sketch=0;" vertex="1" parent="1">
          <mxGeometry x="80" y="640" width="60" height="20" as="geometry" />
        </mxCell>
        <mxCell id="zrfYQ-joEEeIWXjZLdmF-12" value="&lt;span style=&quot;font-size: 15px&quot;&gt;70s/80s&lt;/span&gt;" style="text;html=1;strokeColor=none;fillColor=none;align=center;verticalAlign=middle;whiteSpace=wrap;rounded=0;shadow=0;sketch=0;" vertex="1" parent="1">
          <mxGeometry x="80" y="673" width="60" height="20" as="geometry" />
        </mxCell>
        <mxCell id="zrfYQ-joEEeIWXjZLdmF-13" value="&lt;span style=&quot;font-size: 15px&quot;&gt;Country&lt;/span&gt;" style="text;html=1;strokeColor=none;fillColor=none;align=center;verticalAlign=middle;whiteSpace=wrap;rounded=0;shadow=0;sketch=0;" vertex="1" parent="1">
          <mxGeometry x="80" y="700" width="60" height="20" as="geometry" />
        </mxCell>
        <mxCell id="zrfYQ-joEEeIWXjZLdmF-14" value="&lt;span style=&quot;font-size: 15px&quot;&gt;Country&lt;/span&gt;" style="text;html=1;strokeColor=none;fillColor=none;align=center;verticalAlign=middle;whiteSpace=wrap;rounded=0;shadow=0;sketch=0;" vertex="1" parent="1">
          <mxGeometry x="80" y="730" width="60" height="20" as="geometry" />
        </mxCell>
        <mxCell id="zrfYQ-joEEeIWXjZLdmF-20" value="" style="rounded=1;whiteSpace=wrap;html=1;shadow=0;sketch=0;strokeWidth=1;fillColor=#ffffff;" vertex="1" parent="1">
          <mxGeometry x="270" y="560" width="150" height="260" as="geometry" />
        </mxCell>
        <mxCell id="zrfYQ-joEEeIWXjZLdmF-21" value="&lt;font style=&quot;font-size: 15px&quot;&gt;Latest Arrivals&lt;/font&gt;" style="text;html=1;strokeColor=none;fillColor=none;align=center;verticalAlign=middle;whiteSpace=wrap;rounded=0;shadow=0;sketch=0;" vertex="1" parent="1">
          <mxGeometry x="270" y="510" width="140" height="20" as="geometry" />
        </mxCell>
        <mxCell id="zrfYQ-joEEeIWXjZLdmF-23" value="" style="rounded=0;whiteSpace=wrap;html=1;shadow=0;sketch=0;strokeWidth=1;fillColor=#ffffff;" vertex="1" parent="1">
          <mxGeometry x="280" y="530" width="800" height="20" as="geometry" />
        </mxCell>
        <mxCell id="zrfYQ-joEEeIWXjZLdmF-24" value="" style="rounded=1;whiteSpace=wrap;html=1;shadow=0;sketch=0;strokeWidth=1;fillColor=#ffffff;" vertex="1" parent="1">
          <mxGeometry x="450" y="560" width="140" height="260" as="geometry" />
        </mxCell>
        <mxCell id="zrfYQ-joEEeIWXjZLdmF-25" value="" style="rounded=1;whiteSpace=wrap;html=1;shadow=0;sketch=0;strokeWidth=1;fillColor=#ffffff;" vertex="1" parent="1">
          <mxGeometry x="610" y="560" width="140" height="260" as="geometry" />
        </mxCell>
        <mxCell id="zrfYQ-joEEeIWXjZLdmF-26" value="" style="rounded=1;whiteSpace=wrap;html=1;shadow=0;sketch=0;strokeWidth=1;fillColor=#ffffff;" vertex="1" parent="1">
          <mxGeometry x="775" y="560" width="130" height="260" as="geometry" />
        </mxCell>
        <mxCell id="zrfYQ-joEEeIWXjZLdmF-27" value="" style="rounded=1;whiteSpace=wrap;html=1;shadow=0;sketch=0;strokeWidth=1;fillColor=#ffffff;" vertex="1" parent="1">
          <mxGeometry x="930" y="560" width="130" height="260" as="geometry" />
        </mxCell>
        <mxCell id="zrfYQ-joEEeIWXjZLdmF-29" value="&lt;font style=&quot;font-size: 19px&quot;&gt;Album&lt;/font&gt;" style="text;html=1;strokeColor=none;fillColor=none;align=center;verticalAlign=middle;whiteSpace=wrap;rounded=0;shadow=0;sketch=0;" vertex="1" parent="1">
          <mxGeometry x="305" y="600" width="80" height="20" as="geometry" />
        </mxCell>
        <mxCell id="zrfYQ-joEEeIWXjZLdmF-30" value="&lt;font style=&quot;font-size: 15px&quot;&gt;Price Details&lt;/font&gt;" style="text;html=1;strokeColor=none;fillColor=none;align=center;verticalAlign=middle;whiteSpace=wrap;rounded=0;shadow=0;sketch=0;" vertex="1" parent="1">
          <mxGeometry x="295" y="710" width="90" height="20" as="geometry" />
        </mxCell>
        <mxCell id="zrfYQ-joEEeIWXjZLdmF-31" value="&lt;font style=&quot;font-size: 19px&quot;&gt;Album&lt;/font&gt;" style="text;html=1;strokeColor=none;fillColor=none;align=center;verticalAlign=middle;whiteSpace=wrap;rounded=0;shadow=0;sketch=0;" vertex="1" parent="1">
          <mxGeometry x="480" y="600" width="80" height="20" as="geometry" />
        </mxCell>
        <mxCell id="zrfYQ-joEEeIWXjZLdmF-32" value="&lt;font style=&quot;font-size: 15px&quot;&gt;Price Details&lt;/font&gt;" style="text;html=1;strokeColor=none;fillColor=none;align=center;verticalAlign=middle;whiteSpace=wrap;rounded=0;shadow=0;sketch=0;" vertex="1" parent="1">
          <mxGeometry x="470" y="700" width="90" height="20" as="geometry" />
        </mxCell>
        <mxCell id="zrfYQ-joEEeIWXjZLdmF-33" value="&lt;font style=&quot;font-size: 19px&quot;&gt;Album&lt;/font&gt;" style="text;html=1;strokeColor=none;fillColor=none;align=center;verticalAlign=middle;whiteSpace=wrap;rounded=0;shadow=0;sketch=0;" vertex="1" parent="1">
          <mxGeometry x="630" y="600" width="80" height="20" as="geometry" />
        </mxCell>
        <mxCell id="zrfYQ-joEEeIWXjZLdmF-34" value="&lt;font style=&quot;font-size: 19px&quot;&gt;Album&lt;/font&gt;" style="text;html=1;strokeColor=none;fillColor=none;align=center;verticalAlign=middle;whiteSpace=wrap;rounded=0;shadow=0;sketch=0;" vertex="1" parent="1">
          <mxGeometry x="795" y="600" width="80" height="20" as="geometry" />
        </mxCell>
        <mxCell id="zrfYQ-joEEeIWXjZLdmF-35" value="&lt;font style=&quot;font-size: 19px&quot;&gt;Album&lt;/font&gt;" style="text;html=1;strokeColor=none;fillColor=none;align=center;verticalAlign=middle;whiteSpace=wrap;rounded=0;shadow=0;sketch=0;" vertex="1" parent="1">
          <mxGeometry x="950" y="600" width="80" height="20" as="geometry" />
        </mxCell>
        <mxCell id="zrfYQ-joEEeIWXjZLdmF-36" value="&lt;font style=&quot;font-size: 15px&quot;&gt;Price Details&lt;/font&gt;" style="text;html=1;strokeColor=none;fillColor=none;align=center;verticalAlign=middle;whiteSpace=wrap;rounded=0;shadow=0;sketch=0;" vertex="1" parent="1">
          <mxGeometry x="623" y="700" width="90" height="20" as="geometry" />
        </mxCell>
        <mxCell id="zrfYQ-joEEeIWXjZLdmF-37" value="&lt;font style=&quot;font-size: 15px&quot;&gt;Price Details&lt;/font&gt;" style="text;html=1;strokeColor=none;fillColor=none;align=center;verticalAlign=middle;whiteSpace=wrap;rounded=0;shadow=0;sketch=0;" vertex="1" parent="1">
          <mxGeometry x="795" y="700" width="90" height="20" as="geometry" />
        </mxCell>
        <mxCell id="zrfYQ-joEEeIWXjZLdmF-38" value="&lt;font style=&quot;font-size: 15px&quot;&gt;Price Details&lt;/font&gt;" style="text;html=1;strokeColor=none;fillColor=none;align=center;verticalAlign=middle;whiteSpace=wrap;rounded=0;shadow=0;sketch=0;" vertex="1" parent="1">
          <mxGeometry x="940" y="710" width="90" height="20" as="geometry" />
        </mxCell>
        <mxCell id="zrfYQ-joEEeIWXjZLdmF-39" value="" style="rounded=1;whiteSpace=wrap;html=1;shadow=0;sketch=0;strokeWidth=1;fillColor=#ffffff;" vertex="1" parent="1">
          <mxGeometry x="322.5" y="870" width="500" height="280" as="geometry" />
        </mxCell>
        <mxCell id="zrfYQ-joEEeIWXjZLdmF-40" value="" style="ellipse;whiteSpace=wrap;html=1;shadow=0;sketch=0;strokeWidth=1;fillColor=#ffffff;" vertex="1" parent="1">
          <mxGeometry x="532" y="880" width="80" height="50" as="geometry" />
        </mxCell>
        <mxCell id="zrfYQ-joEEeIWXjZLdmF-41" value="&lt;font style=&quot;font-size: 15px&quot;&gt;Logo&lt;/font&gt;" style="text;html=1;strokeColor=none;fillColor=none;align=center;verticalAlign=middle;whiteSpace=wrap;rounded=0;shadow=0;sketch=0;" vertex="1" parent="1">
          <mxGeometry x="552.5" y="895" width="40" height="20" as="geometry" />
        </mxCell>
        <mxCell id="zrfYQ-joEEeIWXjZLdmF-44" value="&lt;font style=&quot;font-size: 15px&quot;&gt;Newsletter sign up form&lt;/font&gt;" style="text;html=1;strokeColor=none;fillColor=none;align=center;verticalAlign=middle;whiteSpace=wrap;rounded=0;shadow=0;sketch=0;" vertex="1" parent="1">
          <mxGeometry x="477" y="850" width="190" height="20" as="geometry" />
        </mxCell>
        <mxCell id="zrfYQ-joEEeIWXjZLdmF-45" value="Full Name" style="text;html=1;strokeColor=none;fillColor=none;align=center;verticalAlign=middle;whiteSpace=wrap;rounded=0;shadow=0;sketch=0;" vertex="1" parent="1">
          <mxGeometry x="537" y="940" width="70" height="20" as="geometry" />
        </mxCell>
        <mxCell id="zrfYQ-joEEeIWXjZLdmF-46" value="" style="rounded=0;whiteSpace=wrap;html=1;shadow=0;sketch=0;strokeWidth=1;fillColor=#ffffff;" vertex="1" parent="1">
          <mxGeometry x="502" y="960" width="140" height="20" as="geometry" />
        </mxCell>
        <mxCell id="zrfYQ-joEEeIWXjZLdmF-47" value="Email" style="text;html=1;strokeColor=none;fillColor=none;align=center;verticalAlign=middle;whiteSpace=wrap;rounded=0;shadow=0;sketch=0;" vertex="1" parent="1">
          <mxGeometry x="532.5" y="980" width="70" height="20" as="geometry" />
        </mxCell>
        <mxCell id="zrfYQ-joEEeIWXjZLdmF-48" value="" style="rounded=0;whiteSpace=wrap;html=1;shadow=0;sketch=0;strokeWidth=1;fillColor=#ffffff;" vertex="1" parent="1">
          <mxGeometry x="497.5" y="1010" width="140" height="20" as="geometry" />
        </mxCell>
        <mxCell id="zrfYQ-joEEeIWXjZLdmF-49" value="Phone #" style="text;html=1;strokeColor=none;fillColor=none;align=center;verticalAlign=middle;whiteSpace=wrap;rounded=0;shadow=0;sketch=0;" vertex="1" parent="1">
          <mxGeometry x="530" y="1030" width="70" height="20" as="geometry" />
        </mxCell>
        <mxCell id="zrfYQ-joEEeIWXjZLdmF-50" value="" style="rounded=0;whiteSpace=wrap;html=1;shadow=0;sketch=0;strokeWidth=1;fillColor=#ffffff;" vertex="1" parent="1">
          <mxGeometry x="497.5" y="1060" width="140" height="20" as="geometry" />
        </mxCell>
        <mxCell id="zrfYQ-joEEeIWXjZLdmF-51" value="Sign Up" style="strokeWidth=1;shadow=0;dashed=0;align=center;html=1;shape=mxgraph.mockup.buttons.button;mainText=;buttonStyle=round;fontSize=17;fontStyle=1;whiteSpace=wrap;sketch=0;fillColor=#f5f5f5;strokeColor=#666666;fontColor=#333333;" vertex="1" parent="1">
          <mxGeometry x="525" y="1090" width="85" height="50" as="geometry" />
        </mxCell>
        <mxCell id="zrfYQ-joEEeIWXjZLdmF-55" value="" style="rounded=0;whiteSpace=wrap;html=1;shadow=0;sketch=0;strokeWidth=1;fillColor=#ffffff;" vertex="1" parent="1">
          <mxGeometry x="20" y="1205" width="1060" height="70" as="geometry" />
        </mxCell>
        <mxCell id="zrfYQ-joEEeIWXjZLdmF-56" value="&lt;font style=&quot;font-size: 15px&quot;&gt;TexFind us We are located at the top of King Street, just near the Marly Hotel. Phone us on 02 9519 1234.&lt;/font&gt;" style="text;html=1;strokeColor=none;fillColor=none;align=center;verticalAlign=middle;whiteSpace=wrap;rounded=0;shadow=0;sketch=0;" vertex="1" parent="1">
          <mxGeometry x="47" y="1195" width="920" height="90" as="geometry" />
        </mxCell>
        <mxCell id="zrfYQ-joEEeIWXjZLdmF-57" value="Contact US" style="strokeWidth=1;shadow=0;dashed=0;align=center;html=1;shape=mxgraph.mockup.buttons.button;mainText=;buttonStyle=round;fontSize=17;fontStyle=1;whiteSpace=wrap;sketch=0;fillColor=#f5f5f5;strokeColor=#666666;fontColor=#333333;" vertex="1" parent="1">
          <mxGeometry x="865" y="1215" width="115" height="50" as="geometry" />
        </mxCell>
      </root>
    </mxGraphModel>
  </diagram>
</mxfile>
